 Into the Blue 2005 BRRip H264 AAC-Rx(Phoenix-RG).mp4
      Format : MPEG-4 /AVC
      File size : 1.81 GiB
      Duration : 1h 50mn
      Encoding : 2 Pass
      Format profile : High@L4.1
      Format settings, CABAC : Yes
      Bit rate : 2 030 Kbps
      Width : 1 280 pixels
      Height : 544 pixels
      Display aspect ratio : 2.35
      Frame rate : 23.976 fps
      Resolution : 24 bits
      Colorimetry : 4:2:0
      Scan type : Progressive
      Bits/(Pixel*Frame) : 0.122
      Stream size : 1.56 GiB (86%)
    
     
   Audio #2
      Format : AAC /LC
      Format/Info : Advanced Audio Codec
      Duration : 1h 50mn
      Bit rate : 317 Kbps
      Channel(s) : 6 channels
      Channel positions : Front: L C R, Rear: L R, LFE
      Sampling rate : 48.0 KHz
      Resolution : 16 bits
      Stream size : 250 MiB (13%)


SCREEN:
 
http://img836.imageshack.us/img836/6589/vlcsnap2010082514h25m53.jpg
 
http://img831.imageshack.us/img831/6076/vlcsnap2010082514h28m11.jpg
 
http://img832.imageshack.us/img832/2647/vlcsnap2010082514h34m26.jpg
